<?xml version="1.0" encoding="utf-8"?>
<!-- Generator: Adobe Illustrator 28.4.1, SVG Export Plug-In . SVG Version: 6.00 Build 0)  -->
<svg version="1.0" id="katman_1" xmlns="http://www.w3.org/2000/svg" xmlns:xlink="http://www.w3.org/1999/xlink" x="0px" y="0px"
	 viewBox="0 0 841.89 595.28" style="enable-background:new 0 0 841.89 595.28;" xml:space="preserve">
<style type="text/css">
	.st0{fill:#FFFFFF;filter:url(#Adobe_OpacityMaskFilter);}
	.st1{mask:url(#mask0_4552_16069_00000143601597160237293450000001106194502250402484_);}
	.st2{fill:#091A23;}
</style>
<defs>
	<filter id="Adobe_OpacityMaskFilter" filterUnits="userSpaceOnUse" x="93.97" y="124.4" width="654.11" height="345.67">
		<feColorMatrix  type="matrix" values="1 0 0 0 0  0 1 0 0 0  0 0 1 0 0  0 0 0 1 0"/>
	</filter>
</defs>
<mask maskUnits="userSpaceOnUse" x="93.97" y="124.4" width="654.11" height="345.67" id="mask0_4552_16069_00000143601597160237293450000001106194502250402484_">
	<path class="st0" d="M748.08,124.4H93.97v345.66h654.1V124.4z"/>
</mask>
<g class="st1">
	<path class="st2" d="M93.97,322.84h49.78l27.66-137.6h-49.79L93.97,322.84z M124.37,168.84h49.99l8.22-41.17h-49.97L124.37,168.84z
		 M163.12,361.56h49.79l30.42-148.66h37.34l5.51-27.66h-36.62l1.39-6.22c2.07-11.73,6.22-24.89,24.89-24.89
		c11.08,0,21.44,0.69,31.81,5.53l5.54-29.04c-11.55-4.08-23.71-6.18-35.96-6.23c-40.11,0-67.76,23.51-78.13,60.85h-17.28
		l-5.53,27.66h17.28L163.12,361.56z"/>
	<path class="st2" d="M320.77,325.61c58.77,0,99.57-53.25,99.57-96.81c0-32.5-29.73-46.33-58.77-46.33
		c-64.32,0-99.57,57.42-99.57,96.81C262,311.78,292.43,325.61,320.77,325.61z M478.43,325.61c58.77,0,99.57-53.25,99.57-96.81
		c0-32.5-30.43-46.33-59.47-46.33c-64.3,0-99.56,57.39-99.56,96.81C418.97,311.78,450.09,325.61,478.43,325.61z M658.9,322.84h49.09
		l40.09-195.65H698.3l-11.76,58.08l-20.75-2.07c-48.4,0-92.65,62.22-92.65,106.48c0,17.97,11.73,35.96,31.8,35.96
		c28.35,0,48.4-13.83,56.68-27.66h2.77L658.9,322.84z M505.39,425.87c-38.64,32.02-88.27,47.65-138.29,43.56
		c-65.69-4.15-112.71-54.63-121-107.87h2.76c15.21,33.23,51.86,64.31,96.81,69.14c45.6,5.53,100.26-15.21,129.99-43.56l-33.19-25.59
		h100.26l-22.15,106.49l-14.52-41.49L505.39,425.87z"/>
</g>
</svg>
